<?xml version="1.0" standalone="no"?>
<!DOCTYPE svg PUBLIC "-//W3C//DTD SVG 20010904//EN"
 "http://www.w3.org/TR/2001/REC-SVG-20010904/DTD/svg10.dtd">
<svg version="1.0" xmlns="http://www.w3.org/2000/svg"
 width="721.000000pt" height="721.000000pt" viewBox="0 0 721.000000 721.000000"
 preserveAspectRatio="xMidYMid meet">
<metadata>
Created by potrace 1.14, written by Peter Selinger 2001-2017
</metadata>
<g transform="translate(0.000000,721.000000) scale(0.100000,-0.100000)"
fill="#000000" stroke="none">
<path d="M3487 7204 c-1 -1 -54 -5 -117 -8 -143 -9 -313 -30 -446 -57 -28 -5
-63 -12 -77 -15 -125 -22 -504 -139 -602 -185 l-40 -19 -2 -123 c0 -110 -6
-470 -18 -1279 -4 -224 -2 -288 8 -289 6 0 206 -1 442 -2 l430 -2 1 -527 2
-528 -444 0 -444 0 0 -1182 c0 -1285 -2 -1236 55 -1349 50 -98 234 -306 375
-424 153 -127 337 -232 493 -280 48 -15 87 -29 87 -31 0 -3 -84 -197 -120
-279 -106 -237 -229 -529 -225 -533 3 -3 13 -7 21 -8 9 -2 37 -7 63 -13 25 -6
64 -13 86 -16 23 -3 50 -7 60 -9 11 -2 47 -7 80 -11 33 -3 74 -8 90 -10 132
-16 456 -22 585 -11 30 3 89 7 130 11 96 7 269 34 390 60 3 1 32 7 65 14 72
15 269 72 374 108 190 64 536 229 681 323 25 16 52 33 60 37 36 17 229 155
315 225 135 110 190 160 305 276 134 135 249 267 331 380 24 31 46 59 49 62 4
3 9 10 11 15 2 6 38 62 80 125 41 63 85 132 97 152 l21 38 -22 14 c-159 98
-259 159 -397 243 -91 56 -239 146 -329 202 -90 55 -165 101 -168 101 -2 0
-16 9 -31 19 -44 31 -217 137 -235 144 -11 4 -22 -6 -37 -36 -19 -37 -91 -154
-112 -182 -249 -331 -586 -587 -988 -752 -171 -70 -375 -128 -522 -148 -21 -3
-55 -7 -75 -10 -21 -3 -78 -8 -128 -10 l-90 -5 1 857 c1 472 2 860 3 863 0 3
802 4 1781 3 1370 -1 1780 1 1781 10 1 7 2 23 4 37 27 212 27 709 0 850 -3 14
-7 44 -10 67 -8 64 -15 111 -31 193 -9 41 -18 89 -21 105 -12 69 -96 344 -144
472 -248 666 -729 1281 -1319 1689 -162 112 -541 322 -625 347 -11 3 -52 19
-90 35 -82 34 -278 102 -314 109 -13 2 -29 7 -34 10 -5 3 -26 10 -46 14 -78
19 -217 51 -236 54 -92 17 -209 35 -255 40 -30 3 -64 8 -75 10 -46 9 -479 26
-488 19z m345 -1340 c112 -17 121 -18 231 -48 489 -130 948 -459 1172 -841
104 -176 156 -341 170 -532 l4 -53 -902 0 -902 0 0 746 0 745 72 -2 c39 -1
109 -8 155 -15z"/>
<path d="M1047 6137 c-331 -338 -574 -699 -755 -1122 -80 -187 -184 -511 -206
-640 -2 -16 -11 -64 -20 -105 -8 -41 -20 -115 -26 -165 -6 -49 -13 -101 -16
-115 -23 -147 -23 -609 1 -775 2 -16 7 -48 9 -70 7 -57 15 -112 27 -175 6 -30
12 -66 15 -80 2 -14 7 -37 10 -52 3 -15 6 -31 6 -35 0 -5 4 -18 9 -31 5 -13
11 -36 14 -52 8 -44 79 -275 114 -370 83 -221 202 -461 334 -670 55 -86 176
-258 202 -286 5 -6 24 -29 40 -50 148 -192 544 -571 581 -557 20 8 17 27 -9
60 -92 112 -216 374 -242 508 -3 17 -13 68 -22 115 -15 77 -17 214 -19 1393
-1 719 -5 1314 -8 1322 -4 12 -52 15 -303 17 l-298 3 -3 499 c-1 311 1 502 7
506 6 3 29 5 53 4 250 -10 568 -13 572 -5 7 11 13 163 31 736 4 110 8 212 9
227 3 23 -9 38 -31 38 -2 0 -37 -33 -76 -73z"/>
</g>
</svg>
