<?xml version="1.0" standalone="no"?>
<!DOCTYPE svg PUBLIC "-//W3C//DTD SVG 20010904//EN"
 "http://www.w3.org/TR/2001/REC-SVG-20010904/DTD/svg10.dtd">
<svg version="1.0" xmlns="http://www.w3.org/2000/svg"
 width="596.000000pt" height="596.000000pt" viewBox="0 0 596.000000 596.000000"
 preserveAspectRatio="xMidYMid meet">
<metadata>
Created by potrace 1.14, written by Peter Selinger 2001-2017
</metadata>
<g transform="translate(0.000000,596.000000) scale(0.100000,-0.100000)"
fill="#000000" stroke="none">
<path d="M3287 4430 l-39 -5 -45 -125 c-25 -69 -74 -204 -111 -300 -36 -96
-73 -197 -83 -225 -9 -27 -43 -117 -74 -200 -31 -82 -58 -157 -60 -165 -3 -8
-43 -118 -90 -245 -47 -126 -110 -295 -139 -375 -30 -80 -86 -231 -125 -337
-39 -105 -71 -195 -71 -198 0 -4 -6 -21 -14 -38 -12 -27 -98 -257 -142 -379
l-13 -38 212 0 213 0 18 53 c10 28 22 61 26 72 5 11 59 156 120 323 61 166
117 319 125 340 8 20 95 260 195 532 99 272 187 511 195 530 8 19 42 112 75
205 34 94 80 217 102 275 22 58 41 110 43 115 1 6 5 17 8 25 25 61 57 154 53
157 -5 6 -337 9 -379 3z"/>
<path d="M1655 3866 c-190 -97 -819 -417 -1241 -630 -73 -36 -134 -72 -136
-79 -2 -6 -4 -97 -4 -202 l1 -190 75 -38 c41 -21 152 -78 245 -127 94 -48 260
-134 370 -190 110 -56 245 -126 300 -155 55 -29 216 -112 358 -185 l257 -132
-2 228 -3 227 -564 283 c-310 156 -566 286 -569 288 -3 3 105 59 239 125 505
246 687 334 791 384 l108 52 0 228 c0 125 -1 227 -2 226 -2 0 -102 -51 -223
-113z"/>
<path d="M4065 3755 c0 -123 2 -226 5 -228 3 -3 261 -133 574 -289 l569 -285
-154 -75 c-85 -42 -278 -137 -430 -211 -152 -74 -341 -167 -420 -206 l-144
-71 1 -222 c1 -123 2 -224 3 -226 0 -1 146 71 324 162 177 90 498 252 712 361
215 109 429 218 478 243 l87 45 0 198 0 198 -42 24 c-24 14 -160 84 -303 157
-143 73 -296 152 -340 175 -44 23 -168 87 -275 142 -107 55 -296 152 -420 216
l-225 116 0 -224z"/>
</g>
</svg>
