<?xml version="1.0" standalone="no"?>
<!DOCTYPE svg PUBLIC "-//W3C//DTD SVG 20010904//EN"
 "http://www.w3.org/TR/2001/REC-SVG-20010904/DTD/svg10.dtd">
<svg version="1.0" xmlns="http://www.w3.org/2000/svg"
 width="438.000000pt" height="438.000000pt" viewBox="0 0 438.000000 438.000000"
 preserveAspectRatio="xMidYMid meet">
<metadata>
Created by potrace 1.14, written by Peter Selinger 2001-2017
</metadata>
<g transform="translate(0.000000,438.000000) scale(0.100000,-0.100000)"
fill="#000000" stroke="none">
<path d="M730 3343 c0 -104 1 -204 0 -224 l0 -36 -181 1 c-111 1 -183 -3 -187
-9 -4 -5 -7 -45 -7 -87 l-1 -78 188 0 188 0 0 -117 c1 -65 1 -383 1 -708 1
-660 3 -689 65 -812 86 -171 257 -262 493 -261 55 0 131 7 168 15 83 19 200
73 232 107 l23 25 -38 63 c-20 35 -39 65 -41 67 -1 2 -27 -12 -57 -32 -130
-86 -337 -99 -471 -30 -78 41 -136 124 -161 231 -10 43 -13 217 -14 754 l0
698 327 0 328 0 -2 81 c-1 44 -4 83 -7 86 -3 3 -148 6 -323 7 l-318 1 -3 223
-2 222 -101 0 -100 0 1 -187z"/>
<path d="M2740 3080 c-358 -75 -634 -336 -734 -695 -32 -116 -40 -183 -40
-325 0 -147 8 -219 40 -326 109 -377 404 -636 809 -709 81 -14 341 -14 415 0
133 26 289 89 390 158 52 36 170 146 170 159 0 5 -24 38 -54 73 l-54 63 -43
-45 c-89 -91 -208 -164 -334 -202 -102 -32 -135 -36 -295 -36 -161 0 -251 18
-376 75 -265 122 -444 376 -470 668 l-7 72 882 0 881 0 1 43 c2 77 2 92 -5
155 -28 277 -154 513 -370 696 -87 73 -268 152 -412 180 -107 20 -289 18 -394
-4z m330 -164 c70 -12 87 -16 144 -36 213 -73 390 -254 466 -475 30 -89 54
-226 40 -235 -6 -4 -359 -7 -785 -7 l-773 0 4 49 c13 132 93 337 165 418 17
19 37 45 46 57 21 31 147 125 208 155 139 70 337 100 485 74z"/>
</g>
</svg>
